<svg 
  width="430.00002441406247px" 
  height="124.439990234375px" 
  xmlns="http://www.w3.org/2000/svg" 
  viewBox="34.99998779296877 12.780004882812499 430.00002441406247 124.439990234375" 
  style="background: none;" 
  preserveAspectRatio="xMidYMid">
  <defs>
    <linearGradient id="editing-outline-gradient" x1="-0.41354545764260087" x2="1.4135454576426008" y1="0.09326335692419985" y2="0.9067366430758002"><stop offset="0" stop-color="#ee4208"></stop><stop offset="1" stop-color="#4139ff"></stop>
    </linearGradient>
    <filter id="editing-outline" x="-100%" y="-100%" width="300%" height="300%"><feMorphology in="SourceGraphic" operator="dilate" radius="1" result="outline"></feMorphology><feComposite operator="out" in="outline" in2="SourceAlpha"></feComposite></filter>
  </defs>
  <g >
    <g transform="translate(101.02324402332306, 104.47000122070312)">
      <path d="M24.96-4.80L24.96-4.80L24.96-4.80Q24.96-9.28 26.75-18.24L26.75-18.24L17.28-18.24L13.76 0L0.38 0L8.51-42.24L22.02-42.24L18.30-23.36L27.78-23.36L31.30-42.24L44.80-42.24L44.80-42.24Q43.90-37.50 42.75-32.19L42.75-32.19L40.58-21.76L40.58-21.76Q38.14-9.60 38.14-4.29L38.14-4.29L38.14-4.29Q38.14-2.11 38.85-0.90L38.85-0.90L38.85-0.90Q35.65 1.28 31.90 1.28L31.90 1.28L31.90 1.28Q28.16 1.28 26.56-0.51L26.56-0.51L26.56-0.51Q24.96-2.30 24.96-4.80ZM66.69-7.23L66.69-7.23L66.69-7.23Q63.36-3.78 57.28-3.78L57.28-3.78L57.28-3.78Q49.66-3.78 48.06-9.34L48.06-9.34L48.06-9.34Q47.55-11.01 47.55-12.86L47.55-12.86L47.55-12.86Q47.55-14.72 47.94-16.64L47.94-16.64L50.94-32.64L63.94-33.92L60.42-15.30L60.42-15.30Q60.29-14.46 60.10-13.57L60.10-13.57L60.10-13.57Q59.90-12.67 59.90-11.74L59.90-11.74L59.90-11.74Q59.90-10.82 60.22-10.21L60.22-10.21L60.22-10.21Q60.54-9.60 60.99-9.22L60.99-9.22L60.99-9.22Q61.76-8.70 63.14-8.70L63.14-8.70L63.14-8.70Q64.51-8.70 65.70-10.37L65.70-10.37L65.70-10.37Q66.88-12.03 67.46-14.91L67.46-14.91L70.98-32.64L83.58-33.92L78.78-8.77L78.78-8.77Q76.42 3.52 71.55 8.38L71.55 8.38L71.55 8.38Q69.06 10.88 65.82 11.87L65.82 11.87L65.82 11.87Q62.59 12.86 58.43 12.86L58.43 12.86L58.43 12.86Q51.71 12.86 47.87 10.75L47.87 10.75L47.87 10.75Q44.03 8.64 44.03 5.12L44.03 5.12L44.03 5.12Q44.03 2.50 46.02 0.99L46.02 0.99L46.02 0.99Q48-0.51 51.07-0.51L51.07-0.51L51.07-0.51Q53.76-0.51 55.81 0.64L55.81 0.64L55.81 0.64Q57.02 1.34 57.60 2.24L57.60 2.24L57.60 2.24Q56.13 3.52 56.13 5.63L56.13 5.63L56.13 5.63Q56.13 8.45 58.69 8.45L58.69 8.45L58.69 8.45Q62.91 8.45 65.34-1.28L65.34-1.28L65.34-1.28Q66.05-4.16 66.69-7.23ZM115.71-4.38L115.71-4.38L115.71-4.38Q113.02-1.66 109.34-0.19L109.34-0.19L109.34-0.19Q105.66 1.28 102.02 1.28L102.02 1.28L102.02 1.28Q98.37 1.28 97.09 0.64L97.09 0.64L95.10 11.52L82.11 12.80L90.94-32.64L101.38-33.73L100.54-29.31L100.54-29.31Q103.23-33.86 108.80-33.86L108.80-33.86L108.80-33.86Q115.07-33.86 118.40-29.82L118.40-29.82L118.40-29.82Q121.34-26.18 121.34-20.61L121.34-20.61L121.34-20.61Q121.34-15.04 119.87-11.07L119.87-11.07L119.87-11.07Q118.40-7.10 115.71-4.38ZM101.25-22.34L97.86-3.58L97.86-3.58Q99.20-2.43 100.86-2.43L100.86-2.43L100.86-2.43Q102.53-2.43 103.49-3.07L103.49-3.07L103.49-3.07Q104.45-3.71 105.15-4.99L105.15-4.99L105.15-4.99Q107.07-8.45 108.61-18.94L108.61-18.94L108.61-18.94Q109.06-22.02 109.06-25.02L109.06-25.02L109.06-25.02Q109.06-28.03 108.38-28.99L108.38-28.99L108.38-28.99Q107.71-29.95 106.43-29.95L106.43-29.95L106.43-29.95Q102.53-29.95 101.25-22.34L101.25-22.34ZM145.22-17.98L145.22-17.98L145.22-17.98Q147.52-22.08 147.52-26.24L147.52-26.24L147.52-26.24Q147.52-28.99 145.54-28.99L145.54-28.99L145.54-28.99Q144-28.99 142.40-26.37L142.40-26.37L142.40-26.37Q140.74-23.74 140.22-20.35L140.22-20.35L136.90 0L123.65 1.28L130.18-32.64L140.74-33.92L139.58-27.46L139.58-27.46Q142.72-33.92 149.76-33.92L149.76-33.92L149.76-33.92Q153.47-33.92 155.49-32L155.49-32L155.49-32Q157.50-30.08 157.50-26.14L157.50-26.14L157.50-26.14Q157.50-22.21 154.91-19.71L154.91-19.71L154.91-19.71Q152.32-17.22 147.90-17.22L147.90-17.22L147.90-17.22Q145.98-17.22 145.22-17.98ZM173.82-3.52L173.82-3.52L173.82-3.52Q171.84 1.28 165.50 1.28L165.50 1.28L165.50 1.28Q162.30 1.28 160.26-0.96L160.26-0.96L160.26-0.96Q158.59-2.82 158.59-4.93L158.59-4.93L158.59-4.93Q158.59-9.73 160.83-20.22L160.83-20.22L165.50-44.80L178.50-46.08L172.29-13.70L172.29-13.70Q171.20-8.96 171.20-7.30L171.20-7.30L171.20-7.30Q171.20-3.65 173.82-3.52ZM182.05-1.92L182.05-1.92L182.05-1.92Q180.54-3.58 179.87-6.21L179.87-6.21L179.87-6.21Q179.20-8.83 179.20-13.12L179.20-13.12L179.20-13.12Q179.20-17.41 180.67-21.31L180.67-21.31L180.67-21.31Q182.14-25.22 184.83-28.03L184.83-28.03L184.83-28.03Q190.34-33.92 199.42-33.92L199.42-33.92L199.42-33.92Q202.69-33.92 205.06-32.83L205.06-32.83L216-33.92L211.26-8.96L211.26-8.96Q211.07-8.19 211.07-6.78L211.07-6.78L211.07-6.78Q211.07-5.38 211.94-4.48L211.94-4.48L211.94-4.48Q212.80-3.58 214.08-3.46L214.08-3.46L214.08-3.46Q213.44-1.28 211.10 0L211.10 0L211.10 0Q208.77 1.28 206.14 1.28L206.14 1.28L206.14 1.28Q203.52 1.28 201.76 0.29L201.76 0.29L201.76 0.29Q200-0.70 199.49-2.37L199.49-2.37L199.49-2.37Q198.46-0.77 196.29 0.26L196.29 0.26L196.29 0.26Q194.11 1.28 191.20 1.28L191.20 1.28L191.20 1.28Q188.29 1.28 185.92 0.51L185.92 0.51L185.92 0.51Q183.55-0.26 182.05-1.92ZM195.55-27.90L195.55-27.90L195.55-27.90Q194.82-26.75 194.18-24.80L194.18-24.80L194.18-24.80Q193.54-22.85 192.48-17.63L192.48-17.63L192.48-17.63Q191.42-12.42 191.42-8.70L191.42-8.70L191.42-8.70Q191.42-4.99 192-3.90L192-3.90L192-3.90Q192.58-2.82 193.60-2.82L193.60-2.82L193.60-2.82Q195.65-2.82 197.15-4.77L197.15-4.77L197.15-4.77Q198.66-6.72 199.23-10.18L199.23-10.18L202.62-28.93L202.62-28.93Q201.28-30.08 199.71-30.08L199.71-30.08L199.71-30.08Q198.14-30.08 197.22-29.57L197.22-29.57L197.22-29.57Q196.29-29.06 195.55-27.90ZM246.53 1.28L246.53 1.28L246.53 1.28Q238.78 1.28 238.78-4.74L238.78-4.74L238.78-4.74Q238.85-6.40 239.36-9.22L239.36-9.22L240.51-15.10L240.51-15.10Q242.24-23.42 242.24-25.28L242.24-25.28L242.24-25.28Q242.24-28.99 240.06-28.99L240.06-28.99L240.06-28.99Q236.42-28.99 234.50-19.46L234.50-19.46L230.72 0L217.86 1.28L224.51-32.70L235.01-33.92L233.98-27.65L233.98-27.65Q236.99-33.92 246.21-33.92L246.21-33.92L246.21-33.92Q250.69-33.92 252.58-32.03L252.58-32.03L252.58-32.03Q254.46-30.14 254.46-25.92L254.46-25.92L254.46-25.92Q254.46-21.95 252.42-12.67L252.42-12.67L252.42-12.67Q251.46-8.51 251.46-6.94L251.46-6.94L251.46-6.94Q251.46-5.38 252.32-4.48L252.32-4.48L252.32-4.48Q253.18-3.58 254.46-3.46L254.46-3.46L254.46-3.46Q253.82-1.28 251.62 0L251.62 0L251.62 0Q249.41 1.28 246.53 1.28ZM279.74-33.92L279.74-33.92L279.74-33.92Q282.05-33.92 283.84-33.41L283.84-33.41L283.84-33.41Q283.90-33.66 284.03-34.37L284.03-34.37L284.35-36.35L284.35-36.35Q284.61-37.63 284.99-39.74L284.99-39.74L286.02-44.80L298.75-46.08L291.65-8.96L291.65-8.96Q291.58-8.58 291.58-7.94L291.58-7.94L291.58-6.91L291.58-6.91Q291.58-5.50 292.29-4.45L292.29-4.45L292.29-4.45Q292.99-3.39 294.14-3.39L294.14-3.39L294.14-3.39Q292.86-0.38 288.96 0.90L288.96 0.90L288.96 0.90Q287.62 1.28 285.73 1.28L285.73 1.28L285.73 1.28Q283.84 1.28 282.11 0.29L282.11 0.29L282.11 0.29Q280.38-0.70 279.87-2.37L279.87-2.37L279.87-2.37Q278.85-0.70 276.80 0.29L276.80 0.29L276.80 0.29Q274.75 1.28 271.78 1.28L271.78 1.28L271.78 1.28Q268.80 1.28 266.34 0.51L266.34 0.51L266.34 0.51Q263.87-0.26 262.34-1.92L262.34-1.92L262.34-1.92Q259.52-5.18 259.52-12.61L259.52-12.61L259.52-12.61Q259.52-22.21 265.15-28.03L265.15-28.03L265.15-28.03Q270.78-33.92 279.74-33.92ZM279.30-30.08L279.30-30.08L279.30-30.08Q276.93-30.08 275.65-27.52L275.65-27.52L275.65-27.52Q274.37-24.96 273.06-18.62L273.06-18.62L273.06-18.62Q271.74-12.29 271.74-6.59L271.74-6.59L271.74-6.59Q271.74-2.69 274.05-2.69L274.05-2.69L274.05-2.69Q276.10-2.69 277.54-4.74L277.54-4.74L277.54-4.74Q278.98-6.78 279.55-10.18L279.55-10.18L283.01-28.93L283.01-28.93Q281.66-30.08 279.30-30.08Z" fill="url(#editing-outline-gradient)">
      </path>
    </g>
  </g>
  <style>
    text {
      font-size: 64px;
      font-family: Arial Black;
      dominant-baseline: central;
      text-anchor: middle;
    }
  </style>
</svg>
